<svg width="319" height="183" viewBox="0 0 319 183" xmlns="http://www.w3.org/2000/svg"><title>logo</title><g fill="#FFF" fill-rule="evenodd"><path d="M192.079 64.033V35.064h-7.725v26.178l-34.033-36.586v87.228l34.033-33.182v22.024h7.725V71.758H228v-7.725h-35.921zM22.797 63.83v10.308h2.973c8.525 0 15.463 6.938 15.463 15.463v22.598c0 8.524-6.938 15.463-15.463 15.463-8.524 0-15.462-6.939-15.462-15.463V98.125L0 99.314v12.885a25.72 25.72 0 0 0 25.77 25.77 25.72 25.72 0 0 0 25.77-25.77V89.601c0-8.326-5.946-17.842-12.29-20.617 6.344-2.577 12.29-12.092 12.29-20.616v-22.4A25.72 25.72 0 0 0 25.77.196 25.72 25.72 0 0 0 0 25.967v14.075l10.308-1.19V25.968c0-8.524 6.938-15.462 15.462-15.462 8.525 0 15.463 6.938 15.463 15.462v22.4c0 8.525-6.938 15.463-15.463 15.463h-2.973zM134.496.19h-15.727L63.776 62.372v10.363l60.207 62.634h15.533L74.437 65.655 134.496.19zM8.74 178.35c0 1.47-1.17 2.64-2.64 2.64H4.06v-17.13H6.1c1.47 0 2.64 1.17 2.64 2.64v11.85zm1.56-11.85c0-2.31-1.89-4.2-4.2-4.2H2.5v20.25h3.6c2.31 0 4.2-1.89 4.2-4.2V166.5zm16.35 16.05V162.3h-1.56v20.25h1.56zm18.75-8.82h2.34v5.22c0 1.29-1.05 2.34-2.34 2.34-1.29 0-2.34-1.05-2.34-2.34V165.9c0-1.29 1.05-2.34 2.34-2.34 1.29 0 2.34 1.05 2.34 2.34v2.58l1.56-.18v-2.4c0-2.16-1.74-3.9-3.9-3.9s-3.9 1.74-3.9 3.9v13.05c0 2.16 1.74 3.9 3.9 3.9.99 0 1.89-.36 2.58-.96v.69l1.32.27v-10.68h-3.9v1.56zm20.16 8.82V162.3H64v20.25h1.56zm21.27-20.25h-7.2v1.56h2.82v18.69h1.59v-18.69h2.79v-1.56zm36.54 18.69V162.3h-1.56v20.25h6.45v-1.56h-4.89zm46.77-18.69h-1.56l-2.97 16.74h-.06l-2.97-16.74h-1.56l1.41 7.92-1.56 8.82h-.06l-2.97-16.74h-1.56l3.63 20.25h1.86l1.41-7.95h.06l1.41 7.95h1.86l3.63-20.25zm15.36 20.25V162.3h-1.56v20.25h1.56zm14.04 0h7.74v-1.56h-5.91l5.91-17.91v-.78h-7.44v1.56h5.67l-5.97 17.91v.78zm51.15-6.72c0-1.41-.72-2.64-1.77-3.42a4.23 4.23 0 0 0 1.77-3.42v-2.49c0-2.31-1.89-4.2-4.2-4.2h-3.45v20.25h1.56v-9.36h1.89c1.47 0 2.64 1.17 2.64 2.64v6.72h1.56v-6.72zm-6.09-4.2v-7.77h1.89c1.47 0 2.64 1.17 2.64 2.64v2.49c0 1.47-1.17 2.64-2.64 2.64h-1.89zm27 6.72c0 1.47-1.17 2.64-2.64 2.64h-2.04v-17.13h2.04c1.47 0 2.64 1.17 2.64 2.64v11.85zm1.56-11.85c0-2.31-1.89-4.2-4.2-4.2h-3.6v20.25h3.6c2.31 0 4.2-1.89 4.2-4.2V166.5zm22.44 9.33c0-1.41-.72-2.64-1.77-3.42a4.23 4.23 0 0 0 1.77-3.42v-2.49c0-2.31-1.89-4.2-4.2-4.2h-3.45v20.25h1.56v-9.36h1.89c1.47 0 2.64 1.17 2.64 2.64v6.72h1.56v-6.72zm-6.09-4.2v-7.77h1.89c1.47 0 2.64 1.17 2.64 2.64v2.49c0 1.47-1.17 2.64-2.64 2.64h-1.89zm22.77 1.62v9.3h1.56v-9.3l3.63-10.95h-1.56l-2.82 8.55h-.06l-2.82-8.55h-1.56l3.63 10.95zM222.29 177.396l-.73 4.854H220l3.09-20.25h2.64l3.09 20.25h-1.56l-.779-4.99h.013l-2.054-13.52h-.06l-2.093 13.656h.002zM101.39 177.146l-.73 4.854H99.1l3.09-20.25h2.64l3.09 20.25h-1.56l-.779-4.99h.013l-2.054-13.52h-.06l-2.093 13.656h.002z"/></g></svg>