<?xml version="1.0" encoding="UTF-8"?>
<svg width="250px" height="153px" viewBox="0 0 250 153" version="1.1" xmlns="http://www.w3.org/2000/svg">
    <path fill="#ffffff" d="M31.7178503,2 C46.5154289,2 58.4357006,14.6014388 58.4357006,30.2446043 L58.4357006,30.2446043 L58.4357006,54.7956835 C58.4357006,64.1381295 52.2700428,74.5669065 45.6933412,77.3913669 C52.2700428,80.4330935 58.4357006,90.8618705 58.4357006,99.9870504 L58.4357006,99.9870504 L58.4357006,124.755396 C58.4357006,140.398561 46.5154289,153 31.7178503,153 C16.9202717,153 5,140.398561 5,124.755396 L5,124.755396 L5,110.633094 L15.6871401,109.329496 L15.6871401,124.755396 C15.6871401,134.097842 22.8804075,141.702158 31.7178503,141.702158 C40.5552931,141.702158 47.7485605,134.097842 47.7485605,124.755396 L47.7485605,124.755396 L47.7485605,99.9870504 C47.7485605,90.6446043 40.5552931,83.0402878 31.7178503,83.0402878 L31.7178503,83.0402878 L28.6350214,83.0402878 L28.6350214,71.742446 L31.7178503,71.742446 C40.5552931,71.742446 47.7485605,64.1381295 47.7485605,54.7956835 L47.7485605,54.7956835 L47.7485605,30.2446043 C47.7485605,20.9021583 40.5552931,13.2978417 31.7178503,13.2978417 C22.8804075,13.2978417 15.6871401,20.9021583 15.6871401,30.2446043 L15.6871401,30.2446043 L15.6871401,44.3669065 L5,45.6705036 L5,30.2446043 C5,14.6014388 16.9202717,2 31.7178503,2 Z M144.453562,2 L82.3570145,73.7894512 L149.644914,150.237805 L133.584347,150.237805 L71.3339731,81.5535969 L71.3339731,70.1887973 L128.193329,2 L144.453562,2 Z M160.700576,28.7012195 L195.71,68.453 L195.710173,39.75 L204.001919,39.75 L204.001,71.515 L245,71.5152439 L245,79.8018293 L204.062,79.801 L204.001,79.864 L204.001919,112.487805 L195.710173,112.487805 L195.71,88.402 L160.700576,124.457317 L160.700576,28.7012195 Z"
    />
</svg>