<svg width="24px" height="25px" viewBox="0 0 24 25" version="1.1" xmlns="http://www.w3.org/2000/svg">
    <g transform="translate(-628.000000, -677.000000)" fill="currentColor">
        <path d="M640.454911,701.803339 L651.805671,690.026506 C652.063876,689.758735 652.063876,689.340324 651.811029,689.07811 L651.429105,688.682037 C651.176258,688.419822 650.767384,688.419822 650.514589,688.682037 L640.917528,698.640201 L640.917528,677.669456 C640.917528,677.301277 640.627013,677 640.271987,677 L639.734036,677 C639.37901,677 639.088495,677.301277 639.088495,677.669456 L639.088495,698.640201 L629.486076,688.682037 C629.233228,688.419822 628.824407,688.419822 628.571559,688.682037 L628.189635,689.07811 C627.936788,689.340324 627.936788,689.764292 628.189635,690.026506 L639.540395,701.803339 C639.79319,702.065554 640.202064,702.065554 640.454911,701.803339 Z" />
    </g>
</svg>